<?xml version="1.0" encoding="iso-8859-1"?>
<!-- Generator: Adobe Illustrator 18.1.1, SVG Export Plug-In . SVG Version: 6.00 Build 0)  -->
<svg version="1.1" id="Capa_1" xmlns="http://www.w3.org/2000/svg" xmlns:xlink="http://www.w3.org/1999/xlink" x="0px" y="0px"
	 viewBox="0 0 303.219 303.219" fill='#FFF' xml:space="preserve">
<path d="M299.583,71.904l-0.286-0.285c-4.848-4.848-12.705-4.848-17.552,0l-74.114,74.115c-4.428,3.926-11.195,3.779-15.435-0.459
	l-0.261-0.262c-4.238-4.238-4.383-11.004-0.459-15.434l74.115-74.115c4.847-4.846,4.847-12.705,0.001-17.551l-0.289-0.289
	c-4.845-4.844-12.704-4.846-17.551,0.002l-74.114,74.115c-4.428,3.926-11.196,3.779-15.434-0.459l-0.262-0.262
	c-4.237-4.236-4.385-11.006-0.457-15.432l74.114-74.115c4.847-4.848,4.847-12.705,0-17.553l-0.286-0.285
	c-4.848-4.848-12.705-4.848-17.553,0l-84.759,84.76c-13.561,13.559-13.559,35.543,0,49.102l10.793,10.794
	c-40.801,34.876-83.059,68.295-123.56,103.468c-17.389,15.883-21.43,30.941-9.108,44.33c13.388,12.322,28.449,8.281,44.33-9.107
	c35.177-40.498,68.595-82.757,103.469-123.559l10.793,10.793c13.559,13.559,35.543,13.561,49.104,0l84.759-84.76
	C304.43,84.609,304.431,76.751,299.583,71.904z"/>
<g>
</g>
<g>
</g>
<g>
</g>
<g>
</g>
<g>
</g>
<g>
</g>
<g>
</g>
<g>
</g>
<g>
</g>
<g>
</g>
<g>
</g>
<g>
</g>
<g>
</g>
<g>
</g>
<g>
</g>
</svg>
